<svg class="pass-drawing" viewBox="0 0 520 330" fill="none" aria-hidden="true" focusable="false"><g transform="rotate(-1.6 96 70)"><path d="M50 62H142V262L136.9 256L131.8 262L126.7 256L121.6 262L116.4 256L111.3 262L106.2 256L101.1 262L96 256L90.9 262L85.8 256L80.7 262L75.6 256L70.4 262L65.3 256L60.2 262L55.1 256L50 262Z" fill="#fff" stroke="currentColor" stroke-width="2" stroke-linejoin="round"/><rect x="60" y="88" width="38.6" height="7" fill="currentColor"/><rect x="116" y="90" width="16" height="3" fill="currentColor" opacity=".45"/><path d="M60 108H132" stroke="currentColor" stroke-width="1.2" stroke-dasharray="3 3"/><rect x="60" y="120" width="59" height="6" fill="currentColor"/><rect x="60" y="132" width="39.6" height="3" fill="currentColor" opacity=".55"/><rect x="60" y="148" width="17.3" height="3" fill="currentColor" opacity=".45"/><rect x="106.1" y="148" width="25.9" height="3" fill="currentColor"/><rect x="60" y="159" width="17.3" height="3" fill="currentColor" opacity=".45"/><rect x="96" y="159" width="36" height="3" fill="currentColor"/><rect x="60" y="170" width="17.3" height="3" fill="currentColor" opacity=".45"/><rect x="111.8" y="170" width="20.2" height="3" fill="currentColor"/><rect x="60" y="186" width="4.6" height="6" fill="currentColor"/><rect x="66.1" y="186" width="4.6" height="6" fill="currentColor"/><rect x="72.2" y="186" width="4.6" height="6" fill="currentColor"/><rect x="78.4" y="186" width="4.6" height="6" fill="currentColor"/><rect x="84.5" y="186" width="4.6" height="6" fill="none" stroke="currentColor" stroke-width=".8" opacity=".5"/><rect x="90.6" y="186" width="4.6" height="6" fill="none" stroke="currentColor" stroke-width=".8" opacity=".5"/><rect x="96.8" y="186" width="4.6" height="6" fill="none" stroke="currentColor" stroke-width=".8" opacity=".5"/><rect x="102.9" y="186" width="4.6" height="6" fill="none" stroke="currentColor" stroke-width=".8" opacity=".5"/><rect x="109" y="186" width="4.6" height="6" fill="none" stroke="currentColor" stroke-width=".8" opacity=".5"/><rect x="115.1" y="186" width="4.6" height="6" fill="none" stroke="currentColor" stroke-width=".8" opacity=".5"/><rect x="121.2" y="186" width="4.6" height="6" fill="none" stroke="currentColor" stroke-width=".8" opacity=".5"/><rect x="127.4" y="186" width="4.6" height="6" fill="currentColor"/><rect x="60" y="206" width="69.1" height="2.4" fill="currentColor" opacity=".35"/><rect x="60" y="228" width="72" height="13" rx="6.5" fill="currentColor"/></g><g transform="rotate(0.7 212 70)"><path d="M160 62H264V312L258.8 306L253.6 312L248.4 306L243.2 312L238 306L232.8 312L227.6 306L222.4 312L217.2 306L212 312L206.8 306L201.6 312L196.4 306L191.2 312L186 306L180.8 312L175.6 306L170.4 312L165.2 306L160 312Z" fill="#fff" stroke="currentColor" stroke-width="2" stroke-linejoin="round"/><rect x="170" y="88" width="43.7" height="7" fill="currentColor"/><rect x="238" y="90" width="16" height="3" fill="currentColor" opacity=".45"/><path d="M170 108H254" stroke="currentColor" stroke-width="1.2" stroke-dasharray="3 3"/><rect x="170" y="120" width="68.9" height="6" fill="currentColor"/><rect x="170" y="132" width="46.2" height="3" fill="currentColor" opacity=".55"/><rect x="170" y="148" width="20.2" height="3" fill="currentColor" opacity=".45"/><rect x="223.8" y="148" width="30.2" height="3" fill="currentColor"/><rect x="170" y="159" width="20.2" height="3" fill="currentColor" opacity=".45"/><rect x="212" y="159" width="42" height="3" fill="currentColor"/><rect x="170" y="170" width="20.2" height="3" fill="currentColor" opacity=".45"/><rect x="230.5" y="170" width="23.5" height="3" fill="currentColor"/><rect x="170" y="181" width="20.2" height="3" fill="currentColor" opacity=".45"/><rect x="217" y="181" width="37" height="3" fill="currentColor"/><rect x="170" y="197" width="5.6" height="7.3" fill="currentColor"/><rect x="177.1" y="197" width="5.6" height="7.3" fill="currentColor"/><rect x="184.2" y="197" width="5.6" height="7.3" fill="currentColor"/><rect x="191.4" y="197" width="5.6" height="7.3" fill="none" stroke="currentColor" stroke-width=".8" opacity=".5"/><rect x="198.5" y="197" width="5.6" height="7.3" fill="none" stroke="currentColor" stroke-width=".8" opacity=".5"/><rect x="205.6" y="197" width="5.6" height="7.3" fill="none" stroke="currentColor" stroke-width=".8" opacity=".5"/><rect x="212.8" y="197" width="5.6" height="7.3" fill="none" stroke="currentColor" stroke-width=".8" opacity=".5"/><rect x="219.9" y="197" width="5.6" height="7.3" fill="none" stroke="currentColor" stroke-width=".8" opacity=".5"/><rect x="227" y="197" width="5.6" height="7.3" fill="none" stroke="currentColor" stroke-width=".8" opacity=".5"/><rect x="234.1" y="197" width="5.6" height="7.3" fill="none" stroke="currentColor" stroke-width=".8" opacity=".5"/><rect x="241.2" y="197" width="5.6" height="7.3" fill="none" stroke="currentColor" stroke-width=".8" opacity=".5"/><rect x="248.4" y="197" width="5.6" height="7.3" fill="none" stroke="currentColor" stroke-width=".8" opacity=".5"/><rect x="170" y="218.3" width="80.6" height="2.4" fill="currentColor" opacity=".35"/><rect x="170" y="226.3" width="73.9" height="2.4" fill="currentColor" opacity=".35"/><rect x="170" y="234.3" width="52.1" height="2.4" fill="currentColor" opacity=".35"/><rect x="170" y="242.3" width="80.6" height="2.4" fill="currentColor" opacity=".35"/><rect x="170" y="250.3" width="73.9" height="2.4" fill="currentColor" opacity=".35"/><rect x="170" y="258.3" width="52.1" height="2.4" fill="currentColor" opacity=".35"/><rect x="170" y="278" width="84" height="13" rx="6.5" fill="currentColor"/></g><g transform="rotate(-0.8 327 70)"><path d="M284 62H370V250L365.2 244L360.4 250L355.7 244L350.9 250L346.1 244L341.3 250L336.6 244L331.8 250L327 244L322.2 250L317.4 244L312.7 250L307.9 244L303.1 250L298.3 244L293.6 250L288.8 244L284 250Z" fill="#fff" stroke="currentColor" stroke-width="2" stroke-linejoin="round"/><rect x="294" y="88" width="36.1" height="7" fill="currentColor"/><rect x="344" y="90" width="16" height="3" fill="currentColor" opacity=".45"/><path d="M294 108H360" stroke="currentColor" stroke-width="1.2" stroke-dasharray="3 3"/><rect x="294" y="120" width="54.1" height="6" fill="currentColor"/><rect x="294" y="132" width="36.3" height="3" fill="currentColor" opacity=".55"/><rect x="294" y="148" width="15.8" height="3" fill="currentColor" opacity=".45"/><rect x="336.2" y="148" width="23.8" height="3" fill="currentColor"/><rect x="294" y="159" width="15.8" height="3" fill="currentColor" opacity=".45"/><rect x="327" y="159" width="33" height="3" fill="currentColor"/><rect x="294" y="175" width="4.1" height="5.4" fill="none" stroke="currentColor" stroke-width=".8" opacity=".5"/><rect x="299.6" y="175" width="4.1" height="5.4" fill="none" stroke="currentColor" stroke-width=".8" opacity=".5"/><rect x="305.2" y="175" width="4.1" height="5.4" fill="none" stroke="currentColor" stroke-width=".8" opacity=".5"/><rect x="310.9" y="175" width="4.1" height="5.4" fill="none" stroke="currentColor" stroke-width=".8" opacity=".5"/><rect x="316.5" y="175" width="4.1" height="5.4" fill="none" stroke="currentColor" stroke-width=".8" opacity=".5"/><rect x="322.1" y="175" width="4.1" height="5.4" fill="currentColor"/><rect x="327.8" y="175" width="4.1" height="5.4" fill="currentColor"/><rect x="333.4" y="175" width="4.1" height="5.4" fill="currentColor"/><rect x="339" y="175" width="4.1" height="5.4" fill="currentColor"/><rect x="344.6" y="175" width="4.1" height="5.4" fill="none" stroke="currentColor" stroke-width=".8" opacity=".5"/><rect x="350.2" y="175" width="4.1" height="5.4" fill="none" stroke="currentColor" stroke-width=".8" opacity=".5"/><rect x="355.9" y="175" width="4.1" height="5.4" fill="none" stroke="currentColor" stroke-width=".8" opacity=".5"/><rect x="294" y="194.4" width="63.4" height="2.4" fill="currentColor" opacity=".35"/><rect x="294" y="216" width="66" height="13" rx="6.5" fill="#2038D5"/></g><g transform="rotate(1.9 435 70)"><path d="M390 62H480V292L475 286L470 292L465 286L460 292L455 286L450 292L445 286L440 292L435 286L430 292L425 286L420 292L415 286L410 292L405 286L400 292L395 286L390 292Z" fill="#fff" stroke="currentColor" stroke-width="2" stroke-linejoin="round"/><rect x="400" y="88" width="37.8" height="7" fill="currentColor"/><rect x="454" y="90" width="16" height="3" fill="currentColor" opacity=".45"/><path d="M400 108H470" stroke="currentColor" stroke-width="1.2" stroke-dasharray="3 3"/><rect x="400" y="120" width="57.4" height="6" fill="currentColor"/><rect x="400" y="132" width="38.5" height="3" fill="currentColor" opacity=".55"/><rect x="400" y="148" width="16.8" height="3" fill="currentColor" opacity=".45"/><rect x="444.8" y="148" width="25.2" height="3" fill="currentColor"/><rect x="400" y="159" width="16.8" height="3" fill="currentColor" opacity=".45"/><rect x="435" y="159" width="35" height="3" fill="currentColor"/><rect x="400" y="170" width="16.8" height="3" fill="currentColor" opacity=".45"/><rect x="450.4" y="170" width="19.6" height="3" fill="currentColor"/><rect x="400" y="186" width="4.5" height="5.8" fill="none" stroke="currentColor" stroke-width=".8" opacity=".5"/><rect x="406" y="186" width="4.5" height="5.8" fill="none" stroke="currentColor" stroke-width=".8" opacity=".5"/><rect x="411.9" y="186" width="4.5" height="5.8" fill="none" stroke="currentColor" stroke-width=".8" opacity=".5"/><rect x="417.9" y="186" width="4.5" height="5.8" fill="none" stroke="currentColor" stroke-width=".8" opacity=".5"/><rect x="423.8" y="186" width="4.5" height="5.8" fill="none" stroke="currentColor" stroke-width=".8" opacity=".5"/><rect x="429.8" y="186" width="4.5" height="5.8" fill="none" stroke="currentColor" stroke-width=".8" opacity=".5"/><rect x="435.8" y="186" width="4.5" height="5.8" fill="currentColor"/><rect x="441.7" y="186" width="4.5" height="5.8" fill="currentColor"/><rect x="447.7" y="186" width="4.5" height="5.8" fill="none" stroke="currentColor" stroke-width=".8" opacity=".5"/><rect x="453.6" y="186" width="4.5" height="5.8" fill="none" stroke="currentColor" stroke-width=".8" opacity=".5"/><rect x="459.6" y="186" width="4.5" height="5.8" fill="none" stroke="currentColor" stroke-width=".8" opacity=".5"/><rect x="465.5" y="186" width="4.5" height="5.8" fill="none" stroke="currentColor" stroke-width=".8" opacity=".5"/><rect x="400" y="205.8" width="67.2" height="2.4" fill="currentColor" opacity=".35"/><rect x="400" y="213.8" width="61.6" height="2.4" fill="currentColor" opacity=".35"/><rect x="400" y="221.8" width="43.4" height="2.4" fill="currentColor" opacity=".35"/><rect x="400" y="229.8" width="67.2" height="2.4" fill="currentColor" opacity=".35"/><rect x="400" y="237.8" width="61.6" height="2.4" fill="currentColor" opacity=".35"/><rect x="400" y="258" width="70" height="13" rx="6.5" fill="currentColor"/></g><path d="M44 62V38h14v24M462 62V38h14v24" fill="#fff" stroke="currentColor" stroke-width="2" stroke-linejoin="round"/><circle cx="51" cy="47" r="2.2" fill="currentColor"/><circle cx="469" cy="47" r="2.2" fill="currentColor"/><rect x="14" y="60" width="492" height="18" rx="9" fill="#fff" stroke="currentColor" stroke-width="2"/><path d="M26 72H494" stroke="currentColor" stroke-width="1.2"/><circle cx="96" cy="72" r="4.5" fill="#fff" stroke="currentColor" stroke-width="1.8"/><circle cx="212" cy="72" r="4.5" fill="#fff" stroke="currentColor" stroke-width="1.8"/><circle cx="327" cy="72" r="4.5" fill="#fff" stroke="currentColor" stroke-width="1.8"/><circle cx="435" cy="72" r="4.5" fill="#fff" stroke="currentColor" stroke-width="1.8"/></svg>
